<svg width="864" height="152" viewBox="0 0 864 152" fill="none" xmlns="http://www.w3.org/2000/svg">
<path d="M48.3489 83.1487C44.3435 81.1874 40.6496 79.4181 36.9557 77.6489C50.2602 89.4588 64.0407 100.53 74.3149 115.879C64.6145 119.764 55.4867 119.266 46.3959 116.62C34.0839 113.036 25.3486 104.818 18.6838 94.2217C7.54784 76.5165 2.75105 56.7306 0.0135332 36.3026C-0.0670638 35.7012 0.233737 35.0487 0.351195 34.4483C3.38284 33.0627 6.10564 34.4788 8.74118 35.0865C27.3908 39.3858 45.0961 45.9581 60.2841 58.005C74.4154 69.2137 81.8078 83.5021 79.517 101.957C79.4201 102.737 79.2005 103.502 78.8248 105.287C68.7586 97.2365 59.2951 89.4438 48.3489 83.1487Z" fill="#023B3B"/>
<path d="M92.5612 74.6632C89.4073 78.4507 86.4997 81.9805 83.1408 86.058C78.6836 79.5828 78.2082 72.98 78.4916 66.4492C79.2455 49.0782 88.584 36.1509 101.085 25.1924C112.549 15.143 125.496 7.32767 139.357 0.997135C142.426 -0.404721 145.155 -0.918667 145.308 3.5091C146.101 26.3711 146.378 49.201 135.556 70.3651C127.069 86.9632 113.264 95.417 94.8188 96.5218C90.1414 96.8019 89.4862 95.7889 91.5156 91.3471C97.3014 78.6842 105.352 67.4895 114.175 56.8083C115.854 54.7754 117.499 52.7145 118.868 50.3857C108.925 57.0464 100.319 65.1278 92.5612 74.6632Z" fill="#8AA823"/>
<path d="M704.211 57.8271C705.749 64.0299 706.375 70.0672 705.066 75.9549C702.644 86.8534 694.482 91.5727 684.338 93.5154C679.286 94.4831 674.125 94.8743 669.036 95.6681C667.075 95.974 664.761 96.4782 664.752 99.0273C664.744 101.607 667.163 102.156 669.053 102.407C676.449 103.392 683.867 104.237 691.295 104.944C703.425 106.097 711.666 111.854 714.603 121.44C717.856 132.061 713.224 143.034 702.906 146.955C688.211 152.54 673.213 152.653 658.637 146.405C648.626 142.114 645.042 132.461 649.79 124.426C653.805 117.632 662.173 116.233 667.438 121.654C667.007 122.106 666.632 122.651 666.124 123.006C662.443 125.577 660.115 129.024 660.788 133.558C661.505 138.395 665.155 140.79 669.562 142.14C677.749 144.649 685.964 144.754 694.096 142.046C701.122 139.707 703.623 135.812 702.924 128.948C702.416 123.962 697.575 119.513 691.557 118.693C683.323 117.571 675.04 116.77 666.84 115.449C656.356 113.76 652.122 108.367 653.916 99.6893C655.043 94.2402 659.68 92.3296 663.75 90.0371C664.028 88.327 662.661 88.0042 661.874 87.2603C654.319 80.1211 651.406 71.5463 654.524 61.4797C657.474 51.9552 664.906 47.7506 674.153 45.9712C681.664 44.5259 688.818 45.5887 695.342 49.4691C698.284 51.2193 700.447 50.8714 703.058 49.0783C707.608 45.9538 712.528 44.1849 718.126 46.192C722.817 47.8736 725.262 52.657 723.345 56.4724C721.785 59.5771 717.439 60.2261 713.209 57.7259C710.19 55.9419 707.353 54.2906 704.211 57.8271ZM678.846 51.6414C675.774 51.7926 673.537 53.3926 671.766 55.7621C667.036 62.0911 667.151 77.1087 671.965 83.3026C676.458 89.0848 683.536 89.0598 687.47 83.2477C691.926 76.6626 692.039 62.4193 687.624 55.9726C685.718 53.1904 683.027 51.7106 678.846 51.6414Z" fill="#8AA823"/>
<path d="M229.663 15.6434C236.788 16.1943 243.311 17.2642 249.447 20.1511C258.503 24.4113 263.328 31.5666 263.214 41.4801C263.094 51.8464 259.702 60.752 249.726 65.8733C241.826 69.929 233.275 70.9866 224.598 71.4472C221.608 71.6059 218.6 71.5898 215.606 71.4779C212.65 71.3673 211.391 72.5627 211.434 75.5852C211.552 83.911 211.445 92.2398 211.544 100.566C211.605 105.702 214.017 109.099 219.295 110.028C221.421 110.402 223.555 110.783 225.702 110.968C227.73 111.142 229.377 111.524 229.233 114.071C229.104 116.359 227.485 116.641 225.713 116.653C221.716 116.682 217.719 116.687 213.722 116.687C204.728 116.686 195.735 116.685 186.741 116.662C184.735 116.656 182.482 116.839 182.336 113.929C182.21 111.444 184.071 111.215 185.966 110.771C195.239 108.602 196.668 107.201 196.763 97.6679C196.972 76.6852 196.969 55.6974 196.76 34.7146C196.666 25.3098 195.953 24.7442 186.138 21.5804C184.272 20.9787 183.919 19.89 183.916 18.263C183.912 16.6417 184.767 15.8242 186.265 15.5636C186.919 15.4498 187.588 15.3594 188.249 15.3624C201.903 15.4246 215.557 15.5019 229.663 15.6434ZM215.224 22.668C212.006 22.5952 211.443 24.6204 211.452 27.266C211.489 38.0766 211.519 48.8877 211.436 59.6978C211.414 62.6433 212.548 63.8535 215.532 63.944C220.558 64.0963 225.55 63.6555 230.383 62.5559C237.909 60.8439 243.351 56.4697 244.678 48.4298C245.186 45.348 244.998 42.1226 244.881 38.9718C244.59 31.0968 240.522 26.01 232.969 23.643C227.422 21.9046 221.74 22.9353 215.224 22.668Z" fill="#023B3B"/>
<path d="M604.35 34.223C612.433 54.1674 620.311 73.783 628.298 93.3543C629.739 96.888 631.512 100.303 633.338 103.66C635.33 107.321 638.112 110.016 642.624 110.355C644.839 110.521 646.485 111.537 646.173 114.178C645.867 116.777 643.843 116.652 642.02 116.655C630.357 116.68 618.695 116.67 607.032 116.657C604.927 116.655 602.986 116.497 602.947 113.577C602.913 110.983 604.664 110.75 606.542 110.403C615.222 108.798 616.384 106.937 613.496 98.7219C611.786 93.8558 609.698 89.1234 607.918 84.28C606.994 81.7647 605.501 80.5719 602.727 80.6014C593.898 80.6954 585.067 80.655 576.237 80.6008C573.748 80.5855 572.204 81.5977 571.318 83.9583C569.042 90.024 566.358 95.9184 565.086 102.358C564.183 106.928 565.733 109.397 570.143 110.349C571.28 110.595 572.474 110.768 573.508 111.258C574.908 111.922 575.017 113.361 574.932 114.716C574.837 116.226 573.676 116.596 572.452 116.599C563.29 116.62 554.127 116.613 544.965 116.579C543.484 116.573 542.4 115.899 542.183 114.287C541.952 112.57 542.625 111.081 544.271 110.784C553.635 109.091 556.036 101.392 558.936 94.0929C568.771 69.3359 578.609 44.5804 588.414 19.8118C589.379 17.3744 590.363 15.2062 593.562 15.2905C596.695 15.373 597.708 17.5065 598.644 19.9586C600.425 24.6236 602.33 29.2415 604.35 34.223ZM602.109 72.2931C600.506 60.2302 594.235 49.8558 590.716 38.4857C590.289 38.5055 589.862 38.5255 589.435 38.5455C585.017 49.6594 580.6 60.7733 575.862 72.6909C585.282 72.6909 593.374 72.6909 602.109 72.2931Z" fill="#8AA823"/>
<path d="M859.04 63.6176C869.151 82.3206 862.157 104.842 843.573 114.336C825.164 123.74 801.896 116.337 793.392 97.6322C783.309 75.4539 794.707 49.6374 820.819 45.9935C837.124 43.7181 849.732 49.7118 859.04 63.6176ZM824.935 110.083C833.796 110.704 839.976 106.628 843.822 98.9227C849.089 88.3723 849.37 77.4241 845.029 66.5884C841.761 58.431 835.627 53.1941 826.526 52.8044C818.823 52.4745 811.311 58.189 808.258 66.7548C804.245 78.017 804.479 89.2349 810.134 100.051C813.105 105.734 817.574 109.316 824.935 110.083Z" fill="#8AA823"/>
<path d="M454.111 50.4414C455.095 54.8295 453.324 56.3909 449.449 56.286C445.623 56.1823 441.79 56.3864 437.964 56.2888C434.856 56.2097 433.452 57.3441 433.484 60.6545C433.605 73.4737 433.408 86.2967 433.602 99.1142C433.709 106.141 436.528 110.867 444.059 111.078C446.003 111.132 447.223 112.097 447.156 114.175C447.079 116.54 445.293 116.641 443.586 116.644C433.263 116.662 422.94 116.65 412.618 116.634C410.827 116.631 409.193 116.298 409.182 114.005C409.172 111.875 410.604 111.38 412.426 110.998C418.438 109.736 419.863 108.102 419.925 101.848C420.059 88.3626 419.939 74.875 420.1 61.3904C420.142 57.879 419.043 56.0211 415.343 56.1051C413.855 56.1388 412.36 55.82 410.872 55.8501C405.055 55.9676 404.87 55.7324 406.557 48.9864C409.217 48.9864 412.03 48.8076 414.81 49.0299C418.621 49.3344 420.302 48.0259 420.094 43.9797C419.82 38.6524 420.362 33.3479 421.824 28.1705C425.316 15.8088 435.024 8.22837 447.803 7.99333C453.29 7.89241 458.8 7.62535 464.006 9.99516C467.045 11.3783 469.524 13.1127 469.673 16.8474C469.772 19.3435 469.133 21.5697 466.834 22.8101C463.609 24.5503 460.715 23.3297 458.016 21.3875C456.8 20.5127 455.624 19.5839 454.424 18.6868C445.901 12.3113 437.367 15.2817 434.614 25.6263C432.828 32.3363 433.701 39.2029 433.574 46.0079C433.519 48.9343 435.625 48.8201 437.712 48.9983C443.112 49.4595 448.644 47.8414 454.111 50.4414Z" fill="#023B3B"/>
<path d="M289.51 50.4666C298.852 45.144 308.432 44.4258 318.318 46.9195C330.821 50.0738 335.256 60.6366 335.423 71.4634C335.482 75.2784 332.864 75.6058 329.991 75.6051C318.332 75.602 306.672 75.6032 295.013 75.609C288.26 75.6125 288.252 75.7251 288.289 82.6917C288.317 87.7684 289.219 92.5834 291.319 97.2235C297.102 110.004 311.444 114.129 323.089 106.226C324.865 105.02 326.449 103.506 328.016 102.022C329.677 100.45 331.149 100.5 332.789 102.049C334.52 103.684 334.171 105.024 332.77 106.748C320.636 121.678 293.367 121.878 280.727 107.159C267.438 91.6848 269.892 60.848 289.51 50.4666ZM319.247 67.0253C320.532 61.3283 318.997 57.5591 314.304 54.8894C303.953 49.0003 291.771 55.4875 290.521 68.2638C299.939 67.9005 309.283 69.0365 319.247 67.0253Z" fill="#023B3B"/>
<path d="M515.847 38.3394C515.645 33.7041 515.985 29.5749 515.354 25.4081C514.673 20.909 512.731 18.4822 508.021 18.3143C505.999 18.2421 503.295 18.4209 503.277 15.2156C503.261 12.1745 505.759 12.1896 507.877 11.7815C512.767 10.8388 517.646 9.84151 522.532 8.87636C529.001 7.59847 529.152 7.74422 529.145 14.5504C529.116 39.6769 529.081 64.8035 529.093 89.93C529.095 94.2518 529.356 98.5727 529.424 102.895C529.498 107.68 531.996 110.286 536.602 110.924C538.719 111.217 540.718 111.424 540.364 114.321C540.037 116.995 537.908 116.646 536.155 116.655C526.67 116.7 517.185 116.698 507.7 116.655C505.947 116.647 503.787 117.019 503.639 114.241C503.53 112.207 504.624 111.443 506.572 110.996C514.102 109.269 515.801 107.054 515.828 98.7389C515.893 78.7709 515.848 58.8025 515.847 38.3394Z" fill="#023B3B"/>
<path d="M784.147 54.1118C781.991 60.2597 777.507 62.0875 771.336 59.7056C763.832 56.8093 761.907 57.398 757.597 64.3971C753.274 71.4168 752.296 79.4002 751.62 87.3645C751.241 91.8313 751.472 96.3581 751.568 100.855C751.711 107.543 753.011 109.264 759.405 110.955C761.306 111.457 762.428 112.199 762.291 114.269C762.156 116.297 760.703 116.633 759.117 116.636C749.453 116.657 739.789 116.653 730.126 116.625C728.544 116.62 727.116 116.308 726.991 114.243C726.865 112.158 727.829 111.155 729.861 111.019C734.638 110.699 737.353 107.929 737.486 103.361C737.863 90.3992 738.499 77.4267 737.125 64.4674C736.657 60.0545 734.403 57.8536 730.078 57.65C728.052 57.5547 726.359 57.0426 726.295 54.6437C726.235 52.3821 727.743 51.5066 729.738 51.085C735.269 49.9167 740.794 48.724 746.306 47.4727C749.038 46.8526 750.345 47.7301 750.567 50.6312C750.805 53.7451 751.403 56.8316 751.963 60.7614C753.767 58.5281 755.137 56.7894 756.552 55.0877C760.863 49.9041 766.176 46.4553 772.982 45.5269C779.392 44.6525 782.864 47.1549 784.147 54.1118Z" fill="#8AA823"/>
<path d="M357.217 116.678C354.058 116.649 351.395 116.651 348.734 116.579C347.281 116.539 346.138 116.039 346.019 114.31C345.901 112.585 346.499 111.631 348.307 111.076C356.338 108.612 356.844 107.867 356.855 99.6779C356.868 89.8568 356.888 80.0356 356.847 70.2147C356.808 61.0779 356.22 60.2711 347.649 57.455C346.175 56.9709 345.395 56.1061 345.326 54.6161C345.243 52.8528 346.211 51.7359 347.839 51.3754C353.841 50.0474 359.867 48.8243 365.875 47.5235C368.2 47.0203 369.287 47.8918 369.502 50.2589C369.815 53.7269 370.294 57.1801 370.751 61.055C372.593 60.2617 373.06 58.5769 373.94 57.3497C378.056 51.6055 383.291 47.5078 390.256 45.7583C393.142 45.0335 395.933 45.2563 398.539 46.4944C402.137 48.2037 403.543 51.3623 402.926 55.1563C402.324 58.8557 399.519 60.2188 396.052 60.5077C393.481 60.7219 391.057 60.1797 388.849 58.9057C384.767 56.551 381.662 57.7917 378.804 61.154C372.478 68.5968 371.485 77.7415 370.636 86.8453C370.174 91.796 370.472 96.8268 370.574 101.818C370.696 107.766 372.3 109.726 378.153 110.995C380.025 111.401 381.325 112.012 381.232 114.124C381.13 116.43 379.44 116.65 377.688 116.656C371.029 116.678 364.371 116.673 357.217 116.678Z" fill="#023B3B"/>
<path d="M472.973 66.5983C472.595 58.2393 472.291 57.8769 464.219 56.3484C462.475 56.0182 460.99 55.6203 460.898 53.4008C460.8 51.0667 461.993 50.2762 464.129 49.8833C470.01 48.8022 475.867 47.5777 481.706 46.2902C485.744 45.4001 487.483 46.5635 487.441 51.0054C487.288 67.1486 487.34 83.2951 487.465 99.4392C487.53 107.852 488.305 108.726 496.575 111.049C498.264 111.524 499.262 112.27 499.266 114.049C499.27 116.011 497.981 116.622 496.31 116.624C485.492 116.635 474.674 116.625 463.856 116.594C462.129 116.589 461.009 115.838 461.033 113.903C461.056 112.026 462.194 111.487 463.836 111.05C472.223 108.82 472.919 108.024 473.001 99.5174C473.105 88.6998 473.003 77.8803 472.973 66.5983Z" fill="#023B3B"/>
<path d="M89.9247 109.542C93.5715 110.961 95.8781 113.766 99.8174 116.074C96.2964 109.824 90.3963 107.268 86.06 102.205C92.5931 99.2226 98.4487 99.0782 104.201 102.027C116.627 108.396 123.288 119.502 128.736 131.79C127.815 132.404 127.296 133.043 126.732 133.084C113.631 134.051 100.647 133.805 89.5206 125.587C83.2705 120.971 80.6891 114.293 81.1886 106.339C84.9133 105.585 87.0962 107.928 89.9247 109.542Z" fill="#023B3B"/>
<path d="M75.121 121.055C79.197 121.381 80.1415 122.72 77.3068 125.622C75.8064 127.158 74.4306 128.816 72.2123 131.299C76.6973 129.164 78.5146 125.094 83.0001 124.297C85.5768 128.959 83.6246 133.051 81.3757 136.801C77.2796 143.632 63.4673 148.647 53.7589 147.185C53.2705 135.868 63.5697 123.023 75.121 121.055Z" fill="#8AA823"/>
<path d="M480.078 28.1634C474.903 27.8465 471.981 25.2575 471.194 20.5996C470.582 16.9778 472.168 14.0188 475.288 12.2039C478.585 10.2855 481.986 10.5428 485.062 12.8945C487.661 14.8825 488.646 17.7013 488.144 20.8116C487.457 25.0664 484.692 27.4439 480.078 28.1634Z" fill="#023B3B"/>
</svg>
