<svg width="2134" height="541" viewBox="0 0 2134 541" fill="none" xmlns="http://www.w3.org/2000/svg">
<path d="M331.625 413.518C299.439 364.242 296.576 309.335 298.941 262.225C303.929 211.909 308.274 166.597 362.901 77.7191C379.653 52.3653 401.418 26.5623 450.143 2C462.698 20.2947 478.444 71.3269 478.126 115.579C476.227 220.216 463.362 249.976 436.974 308.169C396.169 384.518 355.136 404.246 331.625 413.518Z" fill="#6F7C00" stroke="#6F7C00" stroke-width="3.06266"/>
<path d="M336.443 438.961C368.122 425.275 399.648 420.636 434.215 443.617C462.503 463.445 465.917 496.833 470.006 528.003C437.319 540.26 407.641 541.325 374.563 525.675C348.601 509.541 334.674 488.13 336.443 438.961Z" fill="#6F7C00" stroke="#6F7C00" stroke-width="3.06266"/>
<path d="M308.169 426.686C299.424 393.618 258.645 313.616 155.085 309.403C79.9864 309.441 21.6016 351.352 2 419.69C18.659 485.829 68.5168 538.916 155.908 539.442C237.451 539.366 298.027 488.452 308.169 426.686Z" fill="#C8C828" stroke="#C8C828" stroke-width="3.06266"/>
<path d="M207.759 362.078C245.782 361.362 281.749 382.657 287.593 424.629C290.695 438.936 280.019 488.911 208.582 488.414C174.355 487.842 120.429 474.597 120.105 425.863C124.922 387.284 164.111 362.553 207.759 362.078Z" fill="white" stroke="#C8C828" stroke-width="3.06266"/>
<path d="M752.347 237.126C752.347 257.184 744.725 273.096 729.481 284.863C714.237 296.631 693.377 302.514 666.901 302.514C657.541 302.514 650.186 301.846 644.837 300.508L636.814 298.102L636.413 397.588C636.413 402.402 639.221 406.012 644.837 408.419C650.454 410.826 657.273 412.029 665.296 412.029C667.436 412.029 669.709 411.895 672.116 411.628V417.645C672.116 417.11 635.477 416.843 562.2 416.843V410.425C562.2 410.425 562.868 410.425 564.206 410.425C584.263 410.425 594.56 407.349 595.094 401.198C595.897 393.175 596.298 358.275 596.298 296.497C596.298 234.452 595.897 196.209 595.094 181.767C594.827 178.29 590.281 175.75 581.455 174.145L567.816 171.337V164.116C583.595 164.116 603.92 164.25 628.791 164.517C653.663 164.785 669.442 164.919 676.127 164.919C694.313 164.919 711.563 171.471 727.876 184.575C744.19 197.679 752.347 215.196 752.347 237.126ZM711.83 237.126C711.83 228.836 711.429 221.882 710.627 216.266C710.092 210.383 708.621 204.365 706.214 198.214C704.075 192.063 700.33 187.116 694.982 183.372C689.9 179.36 683.348 176.686 675.325 175.349C670.779 174.546 665.163 174.145 658.477 174.145C656.07 174.145 652.459 174.279 647.646 174.546C642.832 174.546 639.221 174.546 636.814 174.546V292.084C636.814 293.421 645.774 294.09 663.692 294.09C679.203 294.09 690.97 288.474 698.993 277.242C707.284 265.742 711.563 252.37 711.83 237.126ZM803.614 323.374L875.822 322.973C876.089 318.427 876.223 314.148 876.223 310.136C876.223 301.846 875.554 295.16 874.217 290.078C872.078 281.521 867.665 274.567 860.979 269.219C854.561 263.602 846.538 260.794 836.91 260.794C827.015 260.794 819.259 266.41 813.643 277.643C808.027 288.875 804.684 304.119 803.614 323.374ZM803.213 329.392V338.217C803.213 357.472 806.69 374.856 813.643 390.367C820.864 405.878 831.16 413.634 844.532 413.634C860.043 413.634 872.345 409.087 881.438 399.995C890.531 390.902 896.815 381.408 900.292 371.513L911.524 379.536C907.513 389.698 899.757 399.593 888.258 409.221C876.758 418.581 861.648 423.262 842.927 423.262C820.195 423.262 801.207 416.174 785.963 402C770.987 387.826 763.499 367.234 763.499 340.223C763.499 324.444 766.039 310.671 771.121 298.904C776.469 286.869 783.423 277.776 791.981 271.625C800.806 265.207 809.631 260.527 818.457 257.585C827.282 254.643 836.375 253.172 845.735 253.172C860.177 253.172 873.549 257.05 885.851 264.806C898.42 272.561 906.577 285.131 910.321 302.514C911.391 307.863 911.926 313.212 911.926 318.56C911.926 321.502 911.792 324.979 911.524 328.99L803.213 329.392ZM1039.01 249.562C1049.17 249.562 1056.93 252.637 1062.28 258.789C1067.89 264.672 1070.7 273.23 1070.7 284.462C1070.7 291.148 1068.43 297.299 1063.88 302.915C1059.34 308.532 1054.12 311.34 1048.24 311.34C1043.96 311.34 1039.55 309.468 1035 305.723C1030.45 301.979 1028.05 297.567 1027.78 292.485C1027.78 286.602 1031.66 280.986 1039.41 275.637C1038.61 273.23 1037.14 270.823 1035 268.416C1033.13 266.009 1030.05 264.806 1025.77 264.806C1018.28 264.806 1011.06 268.951 1004.11 277.242C997.425 285.265 992.611 293.288 989.669 301.311L985.256 313.747L986.059 399.593C986.326 404.942 995.553 408.419 1013.74 410.023V416.442C1002.51 415.64 987.931 415.238 970.013 415.238C953.164 415.238 939.258 415.64 928.293 416.442V410.023C932.304 409.756 937.519 408.419 943.938 406.012C950.624 403.605 953.967 401.465 953.967 399.593V266.812C950.49 264.672 941.932 263.335 928.293 262.8L927.49 256.382C942.734 256.382 960.92 253.707 982.047 248.359L986.46 296.497C990.739 284.997 997.291 274.3 1006.12 264.405C1014.94 254.51 1025.91 249.562 1039.01 249.562ZM1253.15 182.168C1253.15 203.296 1245.39 213.859 1229.88 213.859C1224.53 213.859 1219.45 211.452 1214.64 206.639C1209.82 201.557 1207.42 196.209 1207.42 190.592C1207.42 187.116 1208.62 183.773 1211.03 180.564C1213.43 177.354 1215.97 175.215 1218.65 174.145L1222.26 172.139C1221.99 165.453 1217.85 159.971 1209.82 155.692C1201.8 151.413 1194.04 149.274 1186.56 149.274C1179.6 149.274 1173.45 150.21 1168.1 152.082C1162.75 153.954 1158.47 156.494 1155.27 159.704C1152.06 162.913 1149.25 166.657 1146.84 170.936C1144.43 175.215 1142.7 179.895 1141.63 184.976C1140.82 190.058 1140.02 195.273 1139.22 200.621C1138.68 205.97 1138.42 211.319 1138.42 216.667C1138.42 222.016 1138.28 227.097 1138.02 231.911C1138.02 234.318 1138.15 238.062 1138.42 243.144C1138.68 247.957 1138.82 252.236 1138.82 255.98H1200.6C1217.98 255.98 1234.83 253.039 1251.14 247.155C1250.61 293.421 1250.34 344.368 1250.34 399.995C1250.61 402.669 1254.22 405.076 1261.17 407.215C1268.12 409.087 1273.87 410.023 1278.42 410.023V416.442C1267.45 415.64 1252.88 415.238 1234.69 415.238C1217.31 415.238 1203.4 415.64 1192.97 416.442V410.023C1209.29 409.489 1217.85 406.146 1218.65 399.995V266.812C1214.9 265.742 1212.63 265.073 1211.83 264.806H1138.82L1141.23 397.588C1141.23 401.064 1144.7 403.872 1151.66 406.012C1158.88 408.151 1165.96 409.221 1172.92 409.221V416.442C1157.14 415.372 1139.22 414.837 1119.16 414.837C1099.1 414.837 1082.52 415.372 1069.42 416.442V409.221C1077.98 409.221 1085.87 408.151 1093.09 406.012C1100.31 403.605 1103.92 401.064 1103.92 398.39L1105.52 264.806H1071.83V255.98H1105.52C1105.52 253.841 1105.52 251.568 1105.52 249.161C1105.52 178.558 1132.93 143.256 1187.76 143.256C1195.25 143.256 1203.8 144.995 1213.43 148.471C1223.33 151.68 1232.42 156.361 1240.71 162.512C1249 168.395 1253.15 174.947 1253.15 182.168ZM1341.32 152.884C1340.25 178.558 1339.58 207.441 1339.31 239.533C1339.31 252.37 1339.45 276.439 1339.72 311.741C1340.25 346.775 1340.52 376.728 1340.52 401.599C1341.05 404.274 1344.66 406.279 1351.35 407.617C1358.04 408.954 1363.65 409.756 1368.2 410.023V416.442C1356.43 415.105 1342.39 414.436 1326.08 414.436C1307.09 414.436 1291.58 415.105 1279.54 416.442V410.023C1297.19 409.221 1306.29 406.413 1306.82 401.599C1307.62 376.193 1308.02 341.025 1308.02 296.096C1308.02 248.225 1307.62 208.377 1306.82 176.552C1300.14 171.203 1291.04 168.529 1279.54 168.529V161.709C1293.72 160.907 1314.31 157.965 1341.32 152.884Z" fill="#C8C828"/>
<path d="M1523.77 305.723H1443.13L1405.02 395.181C1404.22 396.518 1403.82 397.855 1403.82 399.192C1403.82 402.936 1406.76 406.012 1412.65 408.419C1418.53 410.558 1424.41 411.628 1430.3 411.628L1430.7 418.047L1351.67 418.448V410.425C1351.94 410.425 1352.21 410.425 1352.47 410.425C1357.55 410.425 1363.04 409.355 1368.92 407.215C1374.8 404.808 1379.48 401.599 1382.96 397.588C1387.51 392.239 1406.36 351.722 1439.52 276.038L1489.27 162.913H1502.5L1590.36 371.112C1597.84 389.03 1606 400.128 1614.83 404.407C1617.23 405.477 1619.77 406.279 1622.45 406.814C1625.12 407.082 1627.66 407.215 1630.07 407.215C1632.48 407.215 1634.22 407.349 1635.29 407.617L1634.48 417.645C1616.57 416.843 1596.37 416.442 1573.91 416.442C1553.58 416.442 1537.14 416.843 1524.57 417.645L1524.97 410.023C1524.97 410.291 1527.38 410.425 1532.19 410.425C1541.82 410.425 1548.5 408.151 1552.25 403.605C1554.12 401.465 1555.06 398.524 1555.06 394.78C1555.06 391.303 1554.25 387.425 1552.65 383.146L1550.64 377.129L1523.77 305.723ZM1447.95 296.096H1520.56L1484.85 209.447L1447.95 296.096ZM1791.66 280.852C1788.45 280.852 1784.7 278.311 1780.42 273.23C1776.41 268.149 1773.87 265.608 1772.8 265.608C1766.12 265.608 1761.03 267.748 1757.56 272.027L1762.37 275.637C1765.05 278.044 1767.72 282.457 1770.39 288.875C1773.07 295.293 1774.41 302.648 1774.41 310.938C1774.41 329.659 1767.45 344.502 1753.55 355.467C1739.91 366.164 1725.6 371.513 1710.62 371.513C1703.4 371.513 1696.05 370.309 1688.56 367.902L1677.73 364.693L1673.32 366.298C1670.64 367.635 1667.97 369.774 1665.29 372.716C1662.62 375.391 1661.15 378.065 1660.88 380.739C1661.15 389.565 1669.84 393.977 1686.95 393.977C1710.49 393.977 1727.07 394.913 1736.7 396.785C1753.55 399.727 1766.38 404.541 1775.21 411.227C1784.03 417.913 1788.45 429.279 1788.45 445.325C1788.45 465.383 1779.62 481.161 1761.97 492.661C1744.59 504.428 1722.79 510.312 1696.58 510.312C1674.39 510.312 1657.8 506.167 1646.84 497.876C1636.14 489.586 1630.79 479.557 1630.79 467.79C1630.79 458.162 1634.67 450.139 1642.43 443.72C1650.45 437.302 1662.08 431.285 1677.33 425.668C1677.06 425.668 1676.39 425.668 1675.32 425.668C1674.25 425.668 1673.58 425.668 1673.32 425.668C1665.56 425.668 1658.21 422.86 1651.25 417.244C1644.3 411.628 1640.82 403.739 1640.82 393.576C1640.82 388.227 1642.56 383.146 1646.04 378.332C1649.51 373.251 1652.86 369.774 1656.07 367.902C1659.54 365.763 1663.96 363.356 1669.3 360.682C1668.23 359.879 1666.23 357.873 1663.29 354.664C1660.61 351.188 1657.67 347.711 1654.46 344.234C1651.52 340.49 1648.98 335.676 1646.84 329.793C1644.7 323.909 1643.63 318.026 1643.63 312.142C1643.63 297.166 1649.65 283.794 1661.68 272.027C1673.72 260.259 1688.83 254.376 1707.01 254.376C1715.84 254.376 1723.99 255.312 1731.48 257.184C1739.24 259.056 1744.72 260.928 1747.93 262.8L1752.74 265.608C1765.05 254.643 1775.74 249.161 1784.84 249.161C1797.41 249.161 1803.69 254.242 1803.69 264.405C1803.69 275.37 1799.68 280.852 1791.66 280.852ZM1744.72 311.741C1744.72 295.962 1740.98 283.66 1733.49 274.835C1726 265.742 1717.84 261.195 1709.02 261.195C1700.99 261.195 1693.37 266.009 1686.15 275.637C1678.93 285.265 1675.32 297.032 1675.32 310.938C1675.32 325.915 1678.4 338.618 1684.55 349.048C1690.97 359.478 1699.52 364.693 1710.22 364.693C1720.12 364.693 1728.27 360.414 1734.69 351.856C1741.38 343.298 1744.72 329.926 1744.72 311.741ZM1761.97 463.778C1761.97 448.534 1756.76 438.505 1746.33 433.692C1736.16 428.878 1716.91 426.471 1688.56 426.471L1681.74 429.68C1676.93 431.552 1671.98 435.697 1666.9 442.116C1662.08 448.534 1659.68 456.156 1659.68 464.981C1659.68 474.609 1663.29 483.435 1670.51 491.458C1677.73 499.481 1688.69 503.492 1703.4 503.492C1722.12 503.492 1736.56 499.481 1746.73 491.458C1756.89 483.702 1761.97 474.475 1761.97 463.778ZM1921.15 249.562C1931.31 249.562 1939.07 252.637 1944.41 258.789C1950.03 264.672 1952.84 273.23 1952.84 284.462C1952.84 291.148 1950.57 297.299 1946.02 302.915C1941.47 308.532 1936.26 311.34 1930.37 311.34C1926.1 311.34 1921.68 309.468 1917.14 305.723C1912.59 301.979 1910.18 297.567 1909.92 292.485C1909.92 286.602 1913.79 280.986 1921.55 275.637C1920.75 273.23 1919.28 270.823 1917.14 268.416C1915.26 266.009 1912.19 264.806 1907.91 264.806C1900.42 264.806 1893.2 268.951 1886.25 277.242C1879.56 285.265 1874.75 293.288 1871.81 301.311L1867.39 313.747L1868.2 399.593C1868.46 404.942 1877.69 408.419 1895.88 410.023V416.442C1884.64 415.64 1870.07 415.238 1852.15 415.238C1835.3 415.238 1821.39 415.64 1810.43 416.442V410.023C1814.44 409.756 1819.66 408.419 1826.07 406.012C1832.76 403.605 1836.1 401.465 1836.1 399.593V266.812C1832.63 264.672 1824.07 263.335 1810.43 262.8L1809.63 256.382C1824.87 256.382 1843.06 253.707 1864.18 248.359L1868.6 296.497C1872.88 284.997 1879.43 274.3 1888.25 264.405C1897.08 254.51 1908.04 249.562 1921.15 249.562ZM2043.82 413.233C2058.26 413.233 2069.49 406.547 2077.52 393.175C2085.54 379.803 2089.55 360.548 2089.55 335.409C2089.55 314.549 2085.27 296.363 2076.72 280.852C2068.16 265.073 2056.93 257.184 2043.02 257.184C2033.66 257.184 2025.64 259.725 2018.95 264.806C2012.26 269.887 2007.32 276.84 2004.11 285.666C2001.16 294.224 1998.89 302.782 1997.29 311.34C1995.95 319.898 1995.28 328.857 1995.28 338.217C1995.28 360.414 1999.56 378.466 2008.12 392.373C2016.68 406.279 2028.58 413.233 2043.82 413.233ZM2039.41 249.161C2063.21 249.161 2083.4 257.451 2099.98 274.032C2116.56 290.613 2124.85 309.601 2124.85 330.996C2124.85 356.937 2117.9 378.867 2103.99 396.785C2090.09 414.436 2069.63 423.262 2042.62 423.262C1986.46 423.262 1958.37 392.64 1958.37 331.397C1958.37 307.596 1966.67 287.939 1983.25 272.428C1999.83 256.916 2018.55 249.161 2039.41 249.161Z" fill="#6E7C03"/>
</svg>
